# xmcd
#
# Track frame offsets:
#	150
#	11727
#	22807
#	33885
#	46632
#	55227
#	58232
#	63725
#	69700
#	85485
#	97900
#	106072
#	121560
#
# Disc length: 1759 seconds
#
# Revision: 1
# Processed by: cddbd v1.5.1PL0 Copyright (c) Steve Scherf et al.
# Submitted via: CDex 1.50Beta5
#
DISCID=9f06dd0d
DTITLE=チューリップ - 君のために生れかわろう
DYEAR=1997
DGENRE=
TTITLE0=新しい地球をつくれ
TTITLE1=風車
TTITLE2=外へ出ちゃあぶないよ
TTITLE3=早くおいで
TTITLE4=雨が
TTITLE5=いつもいつも
TTITLE6=ぼくらの愛が消えてしまうはずはない
TTITLE7=もう一度生れかわろう
TTITLE8=君のために生れかわろう
TTITLE9=箱入り娘
TTITLE10=電車
TTITLE11=一人の部屋
TTITLE12=バイバイもうさよならさ
EXTD=
EXTT0=
EXTT1=
EXTT2=
EXTT3=
EXTT4=
EXTT5=
EXTT6=
EXTT7=
EXTT8=
EXTT9=
EXTT10=
EXTT11=
EXTT12=
PLAYORDER=
